<svg width="366" height="364" viewBox="0 0 366 364" fill="none" xmlns="http://www.w3.org/2000/svg">
<path d="M320.333 185C364.778 185 364.778 185 364.778 185V362.778C347.421 362.778 364.778 362.778 320.333 362.778H320.332C275.887 362.778 187 362.777 187 273.889C187 185.001 275.887 185 320.332 185L320.333 185Z" fill="black" stroke="black"/>
<path d="M298.111 229.444C320.333 229.444 320.333 229.444 320.333 229.444V318.333C311.655 318.333 320.333 318.333 298.111 318.333H298.11C275.888 318.333 231.444 318.332 231.444 273.889C231.444 229.445 275.888 229.444 298.11 229.444L298.111 229.444Z" fill="white" stroke="black"/>
<path d="M45.4444 185C1 185 1 185 1 185V362.778C18.3566 362.778 0.999992 362.778 45.4444 362.778H45.4461C89.891 362.778 178.778 362.777 178.778 273.889C178.778 185.001 89.891 185 45.4461 185L45.4444 185Z" fill="black" stroke="black"/>
<path d="M67.6665 229.444C45.4443 229.444 45.4443 229.444 45.4443 229.444V318.333C54.1226 318.333 45.4443 318.333 67.6665 318.333H67.6674C89.8899 318.333 134.333 318.332 134.333 273.889C134.333 229.445 89.8898 229.444 67.6674 229.444L67.6665 229.444Z" fill="white" stroke="black"/>
<path d="M45.4444 1.00012C1 0.999763 1 1.00012 1 1.00012V178.778C18.3566 178.778 0.999992 178.778 45.4444 178.778H45.4461C89.891 178.778 178.778 178.777 178.778 89.889C178.778 1.00118 89.891 1.00047 45.4461 1.00012L45.4444 1.00012Z" fill="black" stroke="black"/>
<path d="M67.6665 45.4443C45.4443 45.4441 45.4443 45.4443 45.4443 45.4443V134.333C54.1226 134.333 45.4443 134.333 67.6665 134.333H67.6674C89.8899 134.333 134.333 134.332 134.333 89.8886C134.333 45.4448 89.8898 45.4444 67.6674 45.4443L67.6665 45.4443Z" fill="white" stroke="black"/>
</svg>
